<svg xmlns="http://www.w3.org/2000/svg" xmlns:xlink="http://www.w3.org/1999/xlink" width="200px" height="200px" viewBox="0 0 490 128" version="1.1">
    <title>横版</title>
    <g id="-----4.4-分页器-/-Pagination-" stroke="none" stroke-width="1" fill="none" fill-rule="evenodd">
        <g id="横版" fill="#396AFF" fill-rule="nonzero">
            <path d="M54.8029654,114.434043 C28.9292248,100.801965 11.2865831,73.6491971 11.2865831,42.3712771 C11.2865831,41.580687 11.3057877,40.794578 11.3281931,40.0097494 L54.8100071,13.4945745 L98.2783779,40.0097494 C98.3001431,40.794578 98.3199879,41.580687 98.3199879,42.3712771 C98.3199879,73.6491971 80.6767061,100.801965 54.8029654,114.434043 M109.300548,33.9359691 L109.300548,33.9359691 L54.8100071,0.698538022 L0.305382915,33.9359691 C0.277216143,34.9205258 0.253530449,35.9057227 0.253530449,36.8966809 C0.253530449,76.1048275 22.3689275,110.141171 54.8029654,127.230079 C87.2370033,110.141171 109.3524,76.1048275 109.3524,36.8966809 C109.3524,35.9057227 109.328715,34.9205258 109.300548,33.9359691" id="Fill-14"/>
            <path d="M64.5359294,29.1919805 L54.88881,47.1073278 L66.0121243,67.389324 L54.8836888,84.9269805 L43.7558934,67.389324 L54.8792077,47.1073278 L45.4350171,29.0927567 L21.2365593,45.0313087 L21.2365593,46.9159218 C21.2365593,71.3294713 34.9685007,92.5108839 55.1627959,103.10223 C75.3577313,92.4212623 89.0896727,71.2398498 89.0896727,46.9159218 C89.0896727,46.2885709 89.0896727,45.6599398 89.0896727,45.0313087 L64.5359294,29.1919805 Z" id="Fill-16"/>
        </g>
    </g>
</svg>