<?xml version="1.0" standalone="no"?>
<!DOCTYPE svg PUBLIC "-//W3C//DTD SVG 20010904//EN"
 "http://www.w3.org/TR/2001/REC-SVG-20010904/DTD/svg10.dtd">
<svg version="1.0" xmlns="http://www.w3.org/2000/svg"
 width="64.000000pt" height="64.000000pt" viewBox="0 0 64.000000 64.000000"
 preserveAspectRatio="xMidYMid meet">

<g transform="translate(0.000000,64.000000) scale(0.100000,-0.100000)"
fill="#000000" stroke="none">
<path d="M182 549 c-131 -80 -132 -81 -132 -118 0 -55 27 -147 63 -215 35 -67
124 -164 175 -190 30 -15 34 -15 64 0 53 27 144 126 177 192 36 71 61 159 61
213 0 37 -1 38 -122 113 -68 41 -130 77 -138 80 -9 4 -70 -28 -148 -75z m255
-41 l104 -63 -5 -64 c-8 -89 -51 -178 -121 -247 -71 -69 -93 -75 -146 -38 -89
62 -156 177 -165 286 l-5 63 103 62 c57 34 109 63 117 63 7 0 60 -28 118 -62z"/>
<path d="M213 453 c-48 -32 -53 -39 -53 -73 0 -59 29 -126 77 -180 64 -71 76
-76 119 -49 65 40 119 131 129 217 l6 47 -61 37 -60 38 -21 -43 -21 -43 26
-52 26 -52 -26 -40 c-15 -22 -30 -40 -35 -40 -4 0 -19 19 -33 42 l-25 42 29
51 29 51 -25 42 c-14 23 -26 42 -27 41 -1 0 -26 -16 -54 -36z"/>
</g>
</svg>
