<?xml version="1.0" standalone="no"?><!DOCTYPE svg PUBLIC "-//W3C//DTD SVG 1.1//EN" "http://www.w3.org/Graphics/SVG/1.1/DTD/svg11.dtd"><svg t="1701765461327" class="icon" viewBox="0 0 1024 1024" version="1.1" xmlns="http://www.w3.org/2000/svg" p-id="8140" xmlns:xlink="http://www.w3.org/1999/xlink" width="200" height="200"><path d="M466.493753 589.097297c-78.646238 0-152.695618-30.679028-208.257636-86.241046-55.66195-55.66195-86.241046-129.611398-86.241046-208.257637S202.574167 141.902996 258.136185 86.241046 387.747583 0 466.493753 0C545.139991 0 619.08944 30.679028 674.751389 86.241046c55.66195 55.66195 86.241046 129.611398 86.241047 208.257637S730.413339 447.194301 674.751389 502.856251c-55.66195 55.66195-129.611398 86.241046-208.257636 86.241046z m0-529.138285c-129.311603 0-234.639602 105.228067-234.639602 234.639602s105.228067 234.639602 234.639602 234.639602 234.639602-105.228067 234.639602-234.639602S595.805356 59.959012 466.493753 59.959012z" p-id="8141"></path><path d="M29.992143 1024c-16.58866 0-29.979506-13.390846-29.979506-29.979506 0-62.956963 12.291598-124.015224 36.674929-181.575876 23.483947-55.562018 57.160925-105.42793 99.931687-148.198692 42.870694-42.870694 92.736606-76.447741 148.198692-99.931688 57.560652-24.2834 118.618913-36.674929 181.575876-36.674929 64.356007 0 126.613448 12.891188 185.173417 38.273836 56.561335 24.483263 107.026837 59.459354 150.097394 103.928955 11.492144 11.891871 11.192349 30.878891-0.699521 42.371036-11.891871 11.492144-30.878891 11.192349-42.371036-0.699522-77.247194-79.94535-181.076217-123.915292-292.200254-123.915293-224.146775 0-406.422172 182.375329-406.422172 406.422173 0 16.488728-13.390846 29.979506-29.979506 29.979506z" p-id="8142"></path><path d="M706.929393 958.544745c-11.692007 11.692007-30.679028 11.692007-42.371036 0L557.131793 851.118181c-11.692007-11.692007-11.692007-30.679028 0-42.371035s30.679028-11.692007 42.371036 0l107.426564 107.426563c11.692007 11.692007 11.692007 30.679028 0 42.371036z" p-id="8143"></path><path d="M664.558357 958.544745c-11.692007-11.692007-11.692007-30.679028 0-42.371036L972.148091 608.583976c11.692007-11.692007 30.679028-11.692007 42.371035 0s11.692007 30.679028 0 42.371035L706.929393 958.544745c-11.692007 11.692007-30.679028 11.692007-42.371036 0z" p-id="8144"></path></svg>