<?xml version="1.0" standalone="no"?><!DOCTYPE svg PUBLIC "-//W3C//DTD SVG 1.1//EN" "http://www.w3.org/Graphics/SVG/1.1/DTD/svg11.dtd"><svg t="1701765400056" class="icon" viewBox="0 0 1129 1024" version="1.1" xmlns="http://www.w3.org/2000/svg" p-id="4239" xmlns:xlink="http://www.w3.org/1999/xlink" width="220.5078125" height="200">    <path d="M172.473071,20.1164903 C154.306633,2.02148701 128.188344,-1.78097075e-14 96.2706558,-1.78097075e-14 C64.312237,-1.78097075e-14 38.155724,2.0452987 19.9974318,20.1872987 C1.84352597,38.3261656 1.78097075e-14,64.4406948 1.78097075e-14,96.3640227 C1.78097075e-14,128.286724 1.84352597,154.415039 20.0049513,172.556412 C38.1638701,190.704052 64.3141169,192.540058 96.2706558,192.540058 C128.225942,192.540058 154.376815,190.704052 172.53636,172.556412 C190.694653,154.409399 192.540685,128.286724 192.540685,96.3640227 C192.540685,64.3999643 190.672721,38.2553571 172.473071,20.1164903" id="Fill-1" fill="#FF6900" mask="url(#mask-2)"></path><path d="M89.1841721,131.948836 C89.1841721,132.594885 88.640263,133.130648 87.9779221,133.130648 L71.5585097,133.130648 C70.8848896,133.130648 70.338474,132.594885 70.338474,131.948836 L70.338474,89.0100961 C70.338474,88.3584078 70.8848896,87.8251513 71.5585097,87.8251513 L87.9779221,87.8251513 C88.640263,87.8251513 89.1841721,88.3584078 89.1841721,89.0100961 L89.1841721,131.948836 Z" id="Fill-3" fill="#FFFFFF" mask="url(#mask-2)"></path><path d="M121.332896,131.948836 C121.332896,132.594885 120.786481,133.130648 120.121633,133.130648 L104.492393,133.130648 C103.821906,133.130648 103.275491,132.594885 103.275491,131.948836 L103.275491,131.788421 L103.275491,94.9022357 C103.259198,88.4342292 102.889491,81.7863818 99.5502146,78.445226 C96.6790263,75.5652649 91.3251562,74.9054305 85.7557276,74.7669468 L57.4242049,74.7669468 C56.7555977,74.7669468 56.2154484,75.3045896 56.2154484,75.9512649 L56.2154484,128.074424 L56.2154484,131.948836 C56.2154484,132.594885 55.6640198,133.130648 54.9954127,133.130648 L39.3555198,133.130648 C38.6875393,133.130648 38.1498964,132.594885 38.1498964,131.948836 L38.1498964,60.5996188 C38.1498964,59.9447974 38.6875393,59.4121675 39.3555198,59.4121675 L84.4786692,59.4121675 C96.2717211,59.4121675 108.599909,59.9498104 114.680036,66.0380831 C120.786481,72.1533006 121.332896,84.4595571 121.332896,96.2657682 L121.332896,131.948836 Z" id="Fill-5" fill="#FFFFFF" mask="url(#mask-2)"></path><path d="M153.53056,131.948836 C153.53056,132.594885 152.978505,133.130648 152.316164,133.130648 L136.678778,133.130648 C136.010797,133.130648 135.467515,132.594885 135.467515,131.948836 L135.467515,60.5996188 C135.467515,59.9447974 136.010797,59.4121675 136.678778,59.4121675 L152.316164,59.4121675 C152.978505,59.4121675 153.53056,59.9447974 153.53056,60.5996188 L153.53056,131.948836 Z" id="Fill-7" fill="#FFFFFF" mask="url(#mask-2)"></path></svg>